<?xml version="1.0" encoding="utf-8"?>
<!-- Generator: Adobe Illustrator 19.2.0, SVG Export Plug-In . SVG Version: 6.00 Build 0)  -->
<svg version="1.1" id="Layer_1" xmlns="http://www.w3.org/2000/svg" xmlns:xlink="http://www.w3.org/1999/xlink" x="0px" y="0px"
	 viewBox="0 0 379 65.2" style="enable-background:new 0 0 379 65.2;" xml:space="preserve">
<g>
	<path d="M0,32.2v33h5.1v-33c0-15.7,11.4-27.1,27.1-27.1h3.5V0h-3.5C13.8,0,0,13.9,0,32.2z"/>
	<path d="M104.8,32.7C104.8,14.4,91,0,72.7,0c-18.9,0-33,17.6-33,32.7c0,15.6,13.3,32.5,33,32.5h32.2l0-2.6
		C104.9,62.6,104.8,49.8,104.8,32.7z M72.7,60.1c-16.7,0-27.8-14.2-27.8-27.3C44.9,20.3,57,5.1,72.7,5.1c15.6,0,27,11.9,27,27.5
		c0,9.7,0,18.1,0.1,23.5l0,3.9H72.7z"/>
	<path d="M162.5,60.1h-4.8V0h-5.1v60.1h-4.8c-15.7,0-27.1-11.4-27.1-27.1V0h-5.1v33c0,18.4,13.8,32.2,32.2,32.2h14.8
		c18.4,0,32.2-13.8,32.2-32.2V0h-5.1v33C189.6,48.7,178.2,60.1,162.5,60.1z"/>
	<path d="M235,0c-11.2,0-29.8,0-29.8,0v65.2c0,0,19.3,0,31.3,0c10.5,0,20.6-7.4,20.6-32.8S246.2,0,235,0z M233.3,48.7
		c-5.3,0-11.4,0-11.4,0V15.9c0,0,4.4,0,10.4,0c5.4,0,8.9,4.7,8.9,16.3S238.6,48.7,233.3,48.7z"/>
	<path d="M267.8,0v65.2h18V18.5c0,0,7.6,0,10.5,0c3.6,0,5.3,1,5.3,6.1c0,6.1,0,40.5,0,40.5h17c0,0,0-21.1,0-42.1S306.8,0,297.9,0
		C288.9,0,267.8,0,267.8,0z"/>
	<path d="M376.7,0c0,0-9.1,0-23.8,0c-14.7,0-23.8,8.5-23.8,20.4s5.8,20.3,21.6,20.3s-4.1,0,4.1,0c8.2,0,9.7,1.2,9.7,3.8
		c0,3.3-1.6,4.1-8.4,4.1c-7.7,0-25.7,0-25.7,0v16.7c0,0,13.9,0,25.8,0c15.6,0,22.8-6.1,22.8-20.2s-8.3-20.8-21.2-20.8
		c-13,0-0.4,0-4.6,0c-5.1,0-7.4-0.9-7.4-4.1c0-2.9,3.8-3.3,8.5-3.3c4.7,0,22.5,0,22.5,0L376.7,0z"/>
</g>
</svg>
